# xmcd
#
# Track frame offsets:
# 150
# 16000
# 29380
#
# Disc length: 610 seconds
#
#
# Revision: 0
# Processed by: cddbd v1.5.1PL0 Copyright (c) Steve Scherf et al.
# Submitted via: FreeRIP 2.92 
#
DISCID=15026003
DTITLE=Jetsurfers - Next of kin
DYEAR=2000
DGENRE=Country
TTITLE0=Next of kin
TTITLE1=Where's my medicine?
TTITLE2=Folsom prison blues
EXTD=
EXTT0=
EXTT1=
EXTT2=
PLAYORDER=
